<svg width="25" height="25" fill="none" xmlns="http://www.w3.org/2000/svg"><path d="M18.233 0H6.767A6.775 6.775 0 0 0 0 6.767v11.466A6.775 6.775 0 0 0 6.767 25h11.466A6.775 6.775 0 0 0 25 18.233V6.767A6.775 6.775 0 0 0 18.233 0Zm5.301 18.233a5.308 5.308 0 0 1-5.301 5.301H6.767a5.308 5.308 0 0 1-5.301-5.301V6.767a5.308 5.308 0 0 1 5.301-5.301h11.466a5.308 5.308 0 0 1 5.301 5.301v11.466Z" fill="#fff"/><path d="M12.5 5.664A6.843 6.843 0 0 0 5.664 12.5a6.843 6.843 0 0 0 6.836 6.836 6.843 6.843 0 0 0 6.836-6.836A6.843 6.843 0 0 0 12.5 5.664Zm0 12.206a5.376 5.376 0 0 1-5.37-5.37 5.376 5.376 0 0 1 5.37-5.37 5.376 5.376 0 0 1 5.37 5.37 5.376 5.376 0 0 1-5.37 5.37Zm7-14.633c-1.115 0-2.02.906-2.02 2.02 0 1.113.905 2.02 2.02 2.02 1.113 0 2.02-.907 2.02-2.02 0-1.114-.907-2.02-2.02-2.02Zm0 2.574a.555.555 0 1 1 0-1.11.555.555 0 0 1 0 1.11Z" fill="#fff"/></svg>