<svg width="25" height="25" fill="none" xmlns="http://www.w3.org/2000/svg"><path d="M21.45 3.55A12.043 12.043 0 0 0 12.876 0h-.002c-1.601 0-3.162.31-4.639.922a12.063 12.063 0 0 0-3.932 2.629 12.044 12.044 0 0 0-3.551 8.572c0 1.932.466 3.85 1.349 5.56L.064 23.506c-.144.411-.042.857.266 1.165a1.114 1.114 0 0 0 1.165.266l5.821-2.038a12.16 12.16 0 0 0 5.56 1.35c3.239 0 6.283-1.262 8.573-3.552A12.044 12.044 0 0 0 25 12.124c0-3.239-1.26-6.283-3.55-8.573Zm-1.038 16.11a10.587 10.587 0 0 1-7.535 3.12c-1.742 0-3.472-.43-5.003-1.245a1.13 1.13 0 0 0-.901-.07l-5.29 1.851 1.852-5.289a1.13 1.13 0 0 0-.07-.9 10.684 10.684 0 0 1-1.246-5.003c0-2.847 1.109-5.523 3.122-7.536a10.588 10.588 0 0 1 7.535-3.122c2.847 0 5.523 1.109 7.536 3.122a10.587 10.587 0 0 1 3.122 7.535c0 2.847-1.109 5.524-3.122 7.536Z" fill="#fff"/><path d="M17.382 13.207a1.432 1.432 0 0 0-2.023 0l-.61.61a8.878 8.878 0 0 1-3.566-3.566l.61-.61a1.432 1.432 0 0 0 0-2.023L10.15 5.974a1.432 1.432 0 0 0-2.023 0L6.812 7.29c-.753.753-.791 2.048-.106 3.646.595 1.388 1.683 2.913 3.064 4.295 1.382 1.381 2.907 2.47 4.295 3.064.759.325 1.45.488 2.046.488.66 0 1.204-.198 1.6-.594l1.315-1.315c.27-.27.419-.63.419-1.011a1.42 1.42 0 0 0-.42-1.012l-1.643-1.643Zm-.708 3.944c-.215.215-.876.29-2.032-.204-1.22-.523-2.582-1.502-3.835-2.754-1.253-1.253-2.23-2.615-2.753-3.835-.496-1.156-.42-1.817-.205-2.032l1.29-1.29L10.73 8.63l-.763.764a1.119 1.119 0 0 0-.207 1.303 10.344 10.344 0 0 0 4.543 4.543c.434.222.958.139 1.303-.207l.764-.763 1.593 1.593-1.29 1.29Z" fill="#fff"/></svg>