<svg width="25" height="25" viewBox="0 0 25 25" fill="none" xmlns="http://www.w3.org/2000/svg">
<path d="M18.2327 0H6.76727C3.03574 0 0 3.03574 0 6.76727V18.2329C0 21.9643 3.03574 25 6.76727 25H18.2329C21.9643 25 25 21.9643 25 18.2329V6.76727C25 3.03574 21.9643 0 18.2327 0V0ZM23.5344 18.2329C23.5344 21.1561 21.1561 23.5344 18.2327 23.5344H6.76727C3.84388 23.5344 1.46561 21.1561 1.46561 18.2329V6.76727C1.46561 3.84388 3.84388 1.46561 6.76727 1.46561H18.2329C21.1561 1.46561 23.5344 3.84388 23.5344 6.76727V18.2329Z" fill="white"/>
<path d="M12.5 5.66426C8.73069 5.66426 5.66425 8.73071 5.66425 12.5C5.66425 16.2693 8.73069 19.3358 12.5 19.3358C16.2693 19.3358 19.3357 16.2693 19.3357 12.5C19.3357 8.73071 16.2693 5.66426 12.5 5.66426V5.66426ZM12.5 17.8701C9.53902 17.8701 7.12985 15.4612 7.12985 12.5C7.12985 9.53904 9.53902 7.12987 12.5 7.12987C15.4612 7.12987 17.8701 9.53904 17.8701 12.5C17.8701 15.4612 15.4612 17.8701 12.5 17.8701V17.8701Z" fill="white"/>
<path d="M19.4993 3.23659C18.3854 3.23659 17.4794 4.14277 17.4794 5.25647C17.4794 6.37036 18.3854 7.27654 19.4993 7.27654C20.6131 7.27654 21.5193 6.37036 21.5193 5.25647C21.5193 4.14258 20.6131 3.23659 19.4993 3.23659ZM19.4993 5.81075C19.1937 5.81075 18.945 5.56203 18.945 5.25647C18.945 4.95072 19.1937 4.70219 19.4993 4.70219C19.805 4.70219 20.0537 4.95072 20.0537 5.25647C20.0537 5.56203 19.805 5.81075 19.4993 5.81075Z" fill="white"/>
</svg>
