<svg width="197" height="46" viewBox="0 0 197 46" fill="none" xmlns="http://www.w3.org/2000/svg">
<path d="M6.87602 9.84001H10.8L17.028 39H13.176L11.844 31.656H5.90402L4.50002 39H0.684021L6.87602 9.84001ZM11.304 28.74L8.85602 15.6L6.44402 28.74H11.304ZM27.5108 39.324C25.4708 39.324 23.8748 38.916 22.7228 38.1C21.5948 37.284 20.8148 36.144 20.3828 34.68C19.9508 33.216 19.7348 31.38 19.7348 29.172V9.84001H23.6228V29.352C23.6228 31.56 23.8748 33.24 24.3788 34.392C24.9068 35.544 25.9508 36.12 27.5108 36.12C29.0708 36.12 30.1028 35.544 30.6068 34.392C31.1348 33.24 31.3988 31.56 31.3988 29.352V9.84001H35.2508V29.172C35.2508 31.38 35.0348 33.216 34.6028 34.68C34.1708 36.144 33.3908 37.284 32.2628 38.1C31.1348 38.916 29.5508 39.324 27.5108 39.324ZM42.7376 12.864H37.8056V9.84001H51.5936V12.864H46.8056V39H42.7376V12.864ZM61.8567 39.324C59.0007 39.324 56.9487 38.52 55.7007 36.912C54.4767 35.28 53.8647 32.928 53.8647 29.856V18.804C53.8647 15.78 54.4887 13.488 55.7367 11.928C56.9847 10.368 59.0247 9.58801 61.8567 9.58801C64.6887 9.58801 66.7167 10.38 67.9407 11.964C69.1887 13.524 69.8127 15.804 69.8127 18.804V29.892C69.8127 32.916 69.1887 35.244 67.9407 36.876C66.6927 38.508 64.6647 39.324 61.8567 39.324ZM61.8567 36.12C63.3687 36.12 64.3887 35.676 64.9167 34.788C65.4447 33.9 65.7087 32.556 65.7087 30.756V17.976C65.7087 16.2 65.4447 14.892 64.9167 14.052C64.3887 13.188 63.3687 12.756 61.8567 12.756C60.3207 12.756 59.2887 13.188 58.7607 14.052C58.2327 14.892 57.9687 16.2 57.9687 17.976V30.756C57.9687 32.556 58.2327 33.9 58.7607 34.788C59.2887 35.676 60.3207 36.12 61.8567 36.12ZM82.0375 9.84001H93.3415V12.864H86.1055V22.512H91.9735V25.392H86.1055V36.084H93.4135V39H82.0375V9.84001ZM100.982 23.736L95.0057 9.84001H98.7857L103.214 20.136L107.246 9.84001H111.026L104.906 24.06L111.314 39H107.534L102.782 28.02L98.6777 39H94.8977L100.982 23.736ZM114.065 9.84001H121.301C123.821 9.84001 125.645 10.524 126.773 11.892C127.925 13.26 128.501 15.264 128.501 17.904C128.501 20.28 127.889 22.128 126.665 23.448C125.441 24.768 123.665 25.428 121.337 25.428H118.133V39H114.065V9.84001ZM120.005 22.512C121.205 22.512 122.129 22.38 122.777 22.116C123.449 21.852 123.929 21.396 124.217 20.748C124.505 20.1 124.649 19.164 124.649 17.94C124.649 16.452 124.541 15.36 124.325 14.664C124.109 13.968 123.677 13.476 123.029 13.188C122.405 12.9 121.409 12.756 120.041 12.756H118.133V22.512H120.005ZM131.362 9.84001H137.23C140.182 9.84001 142.342 10.452 143.71 11.676C145.102 12.876 145.798 14.844 145.798 17.58C145.798 21.324 144.598 23.592 142.198 24.384L146.338 39H142.414L138.598 25.32H135.43V39H131.362V9.84001ZM136.978 22.404C138.73 22.404 139.978 22.056 140.722 21.36C141.49 20.664 141.874 19.404 141.874 17.58C141.874 16.38 141.742 15.444 141.478 14.772C141.214 14.076 140.746 13.572 140.074 13.26C139.402 12.924 138.454 12.756 137.23 12.756H135.43V22.404H136.978ZM150.03 9.84001H161.334V12.864H154.098V22.512H159.966V25.392H154.098V36.084H161.406V39H150.03V9.84001ZM171.566 39.324C169.118 39.324 167.246 38.568 165.95 37.056C164.678 35.544 163.97 33.468 163.826 30.828L167.426 29.856C167.546 31.728 167.906 33.24 168.506 34.392C169.13 35.544 170.15 36.12 171.566 36.12C172.622 36.12 173.414 35.832 173.942 35.256C174.494 34.656 174.77 33.804 174.77 32.7C174.77 31.5 174.518 30.504 174.014 29.712C173.51 28.92 172.706 28.044 171.602 27.084L166.706 22.764C165.722 21.9 165.002 20.976 164.546 19.992C164.114 18.984 163.898 17.76 163.898 16.32C163.898 14.184 164.51 12.528 165.734 11.352C166.958 10.176 168.626 9.58801 170.738 9.58801C173.042 9.58801 174.782 10.2 175.958 11.424C177.134 12.648 177.842 14.544 178.082 17.112L174.626 18.048C174.506 16.344 174.17 15.036 173.618 14.124C173.09 13.188 172.13 12.72 170.738 12.72C169.706 12.72 168.914 12.996 168.362 13.548C167.81 14.076 167.534 14.868 167.534 15.924C167.534 16.788 167.678 17.52 167.966 18.12C168.254 18.696 168.746 19.284 169.442 19.884L174.374 24.204C175.646 25.332 176.654 26.556 177.398 27.876C178.166 29.196 178.55 30.696 178.55 32.376C178.55 34.512 177.902 36.204 176.606 37.452C175.31 38.7 173.63 39.324 171.566 39.324ZM188.582 39.324C186.134 39.324 184.262 38.568 182.966 37.056C181.694 35.544 180.986 33.468 180.842 30.828L184.442 29.856C184.562 31.728 184.922 33.24 185.522 34.392C186.146 35.544 187.166 36.12 188.582 36.12C189.638 36.12 190.43 35.832 190.958 35.256C191.51 34.656 191.786 33.804 191.786 32.7C191.786 31.5 191.534 30.504 191.03 29.712C190.526 28.92 189.722 28.044 188.618 27.084L183.722 22.764C182.738 21.9 182.018 20.976 181.562 19.992C181.13 18.984 180.914 17.76 180.914 16.32C180.914 14.184 181.526 12.528 182.75 11.352C183.974 10.176 185.642 9.58801 187.754 9.58801C190.058 9.58801 191.798 10.2 192.974 11.424C194.15 12.648 194.858 14.544 195.098 17.112L191.642 18.048C191.522 16.344 191.186 15.036 190.634 14.124C190.106 13.188 189.146 12.72 187.754 12.72C186.722 12.72 185.93 12.996 185.378 13.548C184.826 14.076 184.55 14.868 184.55 15.924C184.55 16.788 184.694 17.52 184.982 18.12C185.27 18.696 185.762 19.284 186.458 19.884L191.39 24.204C192.662 25.332 193.67 26.556 194.414 27.876C195.182 29.196 195.566 30.696 195.566 32.376C195.566 34.512 194.918 36.204 193.622 37.452C192.326 38.7 190.646 39.324 188.582 39.324Z" fill="white"/>
<path d="M0 1.5H80" stroke="white" stroke-width="3"/>
<path d="M0 44.5H80" stroke="white" stroke-width="3"/>
</svg>
